<?xml version="1.0" encoding="UTF-8"?>
<svg version="1.1" xmlns="http://www.w3.org/2000/svg" width="512" height="512">
<path d="M0 0 C1.15529205 -0.0146228 1.15529205 -0.0146228 2.33392334 -0.02954102 C19.500795 -0.20208539 35.9554633 0.06149947 52.71484375 4.23828125 C53.8138501 4.49520752 53.8138501 4.49520752 54.93505859 4.75732422 C98.25368199 15.06939533 137.02336702 44.89468826 160.71484375 82.23828125 C177.79725099 111.02747731 187.16896579 142.27628094 187.02734375 175.86328125 C187.02460953 176.90276917 187.02460953 176.90276917 187.02182007 177.96325684 C186.92954364 198.93735808 183.62958624 219.38627861 176.71484375 239.23828125 C177.689375 239.19832031 178.66390625 239.15835938 179.66796875 239.1171875 C203.58074021 239.17115313 226.96409367 254.77923355 243.58984375 270.61328125 C263.67280096 291.65973865 274.16014299 318.47733913 274.02734375 347.48828125 C274.0217041 348.77444336 274.01606445 350.06060547 274.01025391 351.38574219 C273.89499357 360.38974243 273.35108247 368.58063364 270.71484375 377.23828125 C270.52148438 377.89618652 270.328125 378.5540918 270.12890625 379.23193359 C267.14825523 389.1789364 262.96507244 398.02855982 257.66796875 406.9453125 C256.23799422 409.35624956 254.9435313 411.72726212 253.71484375 414.23828125 C254.62273148 415.13506592 255.5306192 416.03185059 256.46601868 416.95581055 C265.02828934 425.41663921 273.57726333 433.89070307 282.11346149 442.37783813 C286.50223859 446.74054328 290.89553568 451.09848404 295.29956055 455.44580078 C299.55103067 459.6428687 303.79010186 463.85210075 308.02092552 468.06997681 C309.63565463 469.67548105 311.25477201 471.27658447 312.87835121 472.87313843 C315.15510825 475.1134994 317.4156317 477.36912875 319.6730957 479.62890625 C320.34491379 480.28274796 321.01673187 480.93658966 321.70890808 481.61024475 C326.1873701 486.13848691 329.50676822 490.65357437 329.80818653 497.29498291 C329.36014402 503.24126787 326.98803446 507.17174424 322.65234375 511.11328125 C318.11702057 512.85021353 313.50576679 512.94039928 308.71484375 512.23828125 C303.80944638 509.83655747 300.36876646 506.12725084 296.60131836 502.27246094 C295.90475632 501.56815948 295.20819427 500.86385803 294.49052429 500.13821411 C292.98299059 498.61306312 291.47767784 497.08571431 289.97434807 495.55641937 C287.59687866 493.13951051 285.2119413 490.7302152 282.82460022 488.32305908 C276.03949865 481.47991289 269.26427245 474.62711146 262.50366211 467.75976562 C258.36530412 463.55714392 254.21498896 459.36665486 250.0567646 455.18369293 C248.47281113 453.58543998 246.89355274 451.98252015 245.31904411 450.37496185 C243.12357769 448.13403304 240.91331773 445.90877808 238.69897461 443.68652344 C238.04795776 443.01438812 237.39694092 442.34225281 236.72619629 441.64974976 C236.12210434 441.04964081 235.51801239 440.44953186 234.89561462 439.83123779 C234.37484313 439.3032597 233.85407164 438.7752816 233.31751919 438.23130417 C231.74045782 437.02584077 231.74045782 437.02584077 229.70378971 437.46245193 C227.27344071 438.41045959 225.17887762 439.75489575 222.99633789 441.17138672 C198.81989729 456.79820825 169.14613176 461.15578179 141.02734375 455.61328125 C115.41441769 450.02681777 93.40337512 435.28035105 76.71484375 415.23828125 C76.28888916 415.97014648 75.86293457 416.70201172 75.42407227 417.45605469 C67.1274915 431.69647103 58.7657354 445.88916119 50.16809082 459.95019531 C46.07314308 466.64989355 42.02826055 473.37386446 38.078125 480.16015625 C37.69530365 480.81729614 37.3124823 481.47443604 36.9180603 482.15148926 C35.07828873 485.31275797 33.24534749 488.47774064 31.421875 491.6484375 C20.72137093 510.10262714 20.72137093 510.10262714 14.71484375 512.23828125 C9.54740907 512.8643968 5.2159563 512.88970745 0.40234375 510.80078125 C-6.38136235 504.33259636 -10.63194186 495.31330826 -15.22265625 487.23828125 C-20.33706947 478.3047252 -25.5289445 469.42750405 -30.84765625 460.61328125 C-37.47341725 449.62555378 -43.956674 438.56042682 -50.40478516 427.46777344 C-53.87403328 421.50942311 -57.36054355 415.56118884 -60.84765625 409.61328125 C-61.20986267 408.9953772 -61.57206909 408.37747314 -61.94525146 407.74084473 C-67.05769326 399.020611 -72.18975377 390.31216121 -77.33886719 381.61352539 C-81.7803241 374.10538084 -86.19036272 366.57900065 -90.59765625 359.05078125 C-96.13257949 349.59673524 -101.69291566 340.15857663 -107.28515625 330.73828125 C-114.70039976 318.24436835 -122.0666946 305.72247348 -129.39334106 293.17642212 C-131.40910786 289.72730046 -133.44060717 286.28805933 -135.484375 282.85546875 C-162.83021931 236.74241368 -173.86797199 184.25186069 -160.74609375 131.671875 C-154.76907157 108.9535444 -144.83449617 87.75341115 -130.28515625 69.23828125 C-129.61742187 68.35011719 -128.9496875 67.46195312 -128.26171875 66.546875 C-99.90133952 30.09129173 -58.05727829 7.15631627 -12.54052734 0.70776367 C-8.35520185 0.19825368 -4.21321381 0.04450536 0 0 Z M-93.28515625 74.23828125 C-94.26548828 75.12386719 -94.26548828 75.12386719 -95.265625 76.02734375 C-105.39718186 85.41287148 -112.93692279 98.12261016 -119.28515625 110.23828125 C-119.89101562 111.38425781 -120.496875 112.53023438 -121.12109375 113.7109375 C-128.09220794 127.44386274 -132.5204862 142.95211345 -134.28515625 158.23828125 C-134.39472656 159.10839844 -134.50429687 159.97851562 -134.6171875 160.875 C-140.37337005 213.44813396 -116.07244716 255.50598061 -89.92504883 298.81958008 C-84.66348659 307.55397987 -79.56172859 316.37539121 -74.48388672 325.2175293 C-70.67312342 331.84849817 -66.79882952 338.42912505 -62.83984375 344.97265625 C-59.18247788 351.04885001 -55.61736128 357.18010018 -52.03515625 363.30078125 C-46.45623901 372.83199932 -40.86184733 382.35348831 -35.23486328 391.85644531 C-32.22045668 396.95145282 -29.21888059 402.05376668 -26.23046875 407.1640625 C-25.87872589 407.76548569 -25.52698303 408.36690887 -25.1645813 408.98655701 C-24.80911224 409.59435501 -24.45364319 410.20215302 -24.08740234 410.82836914 C-17.25070105 422.51769676 -10.364842 434.17337946 -3.36962891 445.76879883 C0.7220853 452.55555311 4.73822078 459.38346259 8.71484375 466.23828125 C11.81388305 463.53684997 13.69663536 460.15724045 15.7421875 456.6484375 C16.31932747 455.67114937 16.31932747 455.67114937 16.90812683 454.67411804 C17.73202903 453.27777796 18.5538701 451.88022005 19.37384033 450.48156738 C20.66496053 448.27926038 21.96134139 446.08013206 23.25927734 443.88183594 C24.97603994 440.97375437 26.69111483 438.06468992 28.40478516 435.15478516 C31.19521854 430.41981766 34.01149238 425.70068121 36.83984375 420.98828125 C37.28473145 420.2403833 37.72961914 419.49248535 38.18798828 418.72192383 C40.75059493 414.43156044 43.37264788 410.1855695 46.05737305 405.97088623 C47.66281597 403.44477061 49.25166554 400.90840226 50.83953857 398.37121582 C51.62286637 397.12946757 52.41394493 395.8925704 53.2131958 394.66101074 C58.39842545 387.38622225 58.39842545 387.38622225 59.79296875 378.9296875 C59.25929687 377.10244141 59.25929687 377.10244141 58.71484375 375.23828125 C58.44819148 373.89096818 58.19732727 372.54045078 57.9609375 371.1875 C57.8283252 370.49914062 57.69571289 369.81078125 57.55908203 369.1015625 C52.34521279 341.21080458 57.02577403 311.27773806 72.94042969 287.39941406 C75.69435639 283.5328755 78.67293119 279.88050492 81.71484375 276.23828125 C82.27558594 275.51382813 82.83632813 274.789375 83.4140625 274.04296875 C94.54128924 260.19699895 111.3086155 250.26478526 128.14379883 245.38037109 C137.4361639 242.97556743 137.4361639 242.97556743 145.18359375 237.73828125 C146.56453105 234.55150287 147.1497919 231.66601297 147.71484375 228.23828125 C148.11195201 226.79044144 148.52867501 225.34789204 148.9609375 223.91015625 C156.56030689 198.28312501 159.16192533 170.40931105 152.71484375 144.23828125 C152.43278076 143.07304932 152.43278076 143.07304932 152.14501953 141.88427734 C147.59960226 123.76408167 139.9765434 106.2156537 128.71484375 91.23828125 C127.78091797 89.99111328 127.78091797 89.99111328 126.828125 88.71875 C103.8707823 59.14894753 71.04723654 37.97510688 33.71484375 32.23828125 C-14.64465039 26.26436589 -58.23917776 40.40412774 -93.28515625 74.23828125 Z M111.71484375 289.23828125 C110.58175781 290.23408203 110.58175781 290.23408203 109.42578125 291.25 C95.0511096 304.61202296 86.55803183 323.69295926 85.5 343.19921875 C84.81637414 365.39057189 92.1242154 386.16051718 107.32641602 402.43945312 C122.70028683 418.14549668 142.61935387 426.42767476 164.52734375 426.67578125 C186.94813549 426.51839579 205.25339543 418.2369294 221.328125 402.71484375 C237.74907348 385.72078174 243.2893991 365.56035193 242.984375 342.40625 C242.37506557 322.70124308 233.55823979 305.02943806 219.71484375 291.23828125 C202.96655977 275.50863406 182.57693343 268.40250388 159.8828125 268.93359375 C141.80309694 269.74548671 125.0289573 277.02199812 111.71484375 289.23828125 Z " fill="#000000" transform="translate(174.28515625,-0.23828125)"/>
<path d="M0 0 C1.74503514 1.502599 3.47543111 3.02244431 5.1875 4.5625 C6.24904297 5.50029297 6.24904297 5.50029297 7.33203125 6.45703125 C24.03068094 22.10172277 33.22501873 44.90517081 34.390625 67.5 C34.86655435 92.13085017 27.62331954 115.1530847 10.38671875 133.296875 C9.66097656 134.04453125 8.93523437 134.7921875 8.1875 135.5625 C7.57519531 136.24828125 6.96289062 136.9340625 6.33203125 137.640625 C-6.70888507 151.76596719 -28.16675555 161.72914648 -47.28979492 162.68652344 C-75.73550665 163.48124712 -99.35112306 157.57360946 -120.58398438 137.76831055 C-137.96374117 121.0244687 -147.60466634 99.21317245 -148.2175293 75.16845703 C-148.43899404 51.85304864 -142.82055414 31.82673946 -127.8125 13.5625 C-127.21050781 12.79808594 -126.60851562 12.03367187 -125.98828125 11.24609375 C-112.1649841 -5.41720995 -90.73651551 -16.29390296 -69.41796875 -19.12109375 C-44.32623988 -21.32307646 -20.0596306 -16.07537294 0 0 Z M-100.8125 30.5625 C-101.36550781 31.08070313 -101.91851562 31.59890625 -102.48828125 32.1328125 C-106.2757134 36.03254048 -108.61649678 40.69758873 -111.0625 45.5 C-111.4042627 46.16845947 -111.74602539 46.83691895 -112.09814453 47.52563477 C-118.82457942 61.2650567 -118.96427955 77.97179158 -114.13671875 92.38671875 C-107.59395651 108.07776801 -96.70977474 120.06540936 -81.26171875 127.203125 C-67.4431324 132.64918168 -50.87007031 134.31332422 -36.8125 128.5625 C-35.70648438 128.11003906 -34.60046875 127.65757812 -33.4609375 127.19140625 C-17.54930274 119.96357216 -6.15929733 107.88502765 0.1875 91.49609375 C5.38729277 76.24201417 3.87317967 60.76090154 -2.28515625 46.04296875 C-10.34167071 29.98707824 -23.15734893 19.79600683 -39.8125 13.5625 C-62.24420837 6.61590644 -84.71922143 14.55467246 -100.8125 30.5625 Z " fill="#000000" transform="translate(241.8125,107.4375)"/>
</svg>
